<svg xmlns="http://www.w3.org/2000/svg" width="20" height="22" fill="none" viewBox="0 0 20 22"><path fill="#6BA3F7" d="M19.8 9.9C19.8 4.433 15.367 0 9.9 0C4.433 0 0 4.433 0 9.9C0 14.212 2.761 17.864 6.6 19.228V22H8.8V19.734C9.163 19.778 9.526 19.8 9.9 19.8C10.274 19.8 10.637 19.778 11 19.734V22H13.2V19.228C17.039 17.864 19.8 14.212 19.8 9.9ZM9.9 17.6C5.654 17.6 2.2 14.146 2.2 9.9C2.2 5.654 5.654 2.2 9.9 2.2C14.146 2.2 17.6 5.654 17.6 9.9C17.6 14.146 14.146 17.6 9.9 17.6Z"/><path fill="#6BA3F7" d="M14.3 5.5H5.5V7.7H14.3V5.5Z"/><path fill="#6BA3F7" d="M10.725 8.79999L7.42505 12.1L8.80005 13.475L7.42505 14.85L9.07505 16.5L12.375 13.2L11 11.825L12.375 10.45L10.725 8.79999Z"/></svg>