<svg xmlns="http://www.w3.org/2000/svg" width="22" height="22" fill="none" viewBox="0 0 22 22"><path fill="#6BA3F7" d="M11 0C4.928 0 0 4.928 0 11C0 17.072 4.928 22 11 22C17.072 22 22 17.072 22 11C22 4.928 17.072 0 11 0ZM11 18.15C7.359 18.15 4.4 15.191 4.4 11.55H6.6C6.6 13.981 8.569 15.95 11 15.95C13.431 15.95 15.4 13.981 15.4 11.55C15.4 9.086 13.365 7.051 10.824 7.161L12.551 8.888L11 10.45L6.6 6.05L11 1.65L12.551 3.201L10.791 4.961C14.608 4.84 17.6 7.898 17.6 11.55C17.6 15.191 14.641 18.15 11 18.15Z"/></svg>