<svg xmlns="http://www.w3.org/2000/svg" width="230" height="65" fill="none" viewBox="0 0 230 65"><g clip-path="url(#clip0_8_100)"><path fill="#000" d="M99.6149 45.086C96.2433 45.8648 92.8835 46.7197 89.4828 47.2876C84.6154 48.1074 80.455 45.2383 79.3156 40.4779C78.4784 37.1041 78.3767 33.5892 79.0176 30.1725C79.9992 25.0842 82.8098 21.5593 90.0612 22.2268C93.3743 22.5313 96.4887 23.7199 99.7142 24.3992C101.783 24.8383 103.758 24.9086 105.236 22.9588C105.786 22.2799 106.133 21.4586 106.237 20.5901C106.34 19.7216 106.196 18.8416 105.82 18.052C104.862 15.8972 102.899 14.9721 100.69 14.9428C95.4954 14.8608 90.2891 14.6383 85.1237 15.3176C83.9551 15.4639 83.3357 15.259 82.6637 14.3339C79.97 10.6216 77.066 7.04398 74.4833 3.26143C71.8071 -0.638215 66.3437 -0.913415 63.3812 1.7976C61.6282 3.43124 59.7409 4.94191 57.9295 6.52871C56.2992 7.95741 57.9996 8.73031 58.619 9.66716C59.3202 10.7328 60.0213 10.6509 60.9563 9.73743C62.6309 8.11755 64.3861 6.58345 66.2151 5.14099C68.0382 3.68887 69.2594 3.8294 70.6443 5.63284C73.1276 8.85327 75.4883 12.1674 77.9833 15.3761C78.8189 16.4476 78.5092 16.8517 77.4282 17.3084C74.4372 18.5501 71.5774 20.0879 68.8913 21.8989C66.5006 23.4651 63.8166 24.527 61.003 25.0198C54.7917 26.2612 48.7498 24.8207 42.6554 24.0069C37.0693 23.2515 31.5007 22.3381 25.8503 23.1988C21.0998 23.919 17.6173 26.2436 15.9169 30.9337C14.2957 35.505 14.1263 40.4671 15.4319 45.1387C16.7291 50.227 19.9837 53.3362 25.1725 54.1559C28.8963 54.6819 32.6775 54.6484 36.3914 54.0564C42.5794 53.1898 47.8032 49.9577 53.3659 47.4809C59.2091 44.9104 65.0523 44.3248 70.7319 48.1718C77.8256 52.9497 85.6496 55.2919 94.1339 54.4487C96.5998 54.4487 98.9546 54.6478 101.263 54.4019C104.85 54.0271 106.697 51.4742 106.095 48.1367C105.639 45.5076 102.998 44.2956 99.6149 45.086ZM41.6386 40.9053C40.8206 46.9129 38.4307 48.9506 32.3772 48.9506C31.1735 48.9506 29.9639 49.015 28.7661 48.9506C24.0915 48.6519 21.0881 47.1413 20.3928 41.6958C20.0351 39.3198 20.1024 36.8989 20.5914 34.5464C21.4679 30.7463 23.3494 28.1641 31.1092 28.5213C37.7354 28.5213 39.9967 29.7685 41.2062 34.2186C41.7985 36.3955 41.9455 38.67 41.6386 40.9053Z"/><path fill="#000" d="M174.875 61.358C171.562 61.2409 168.249 61.358 164.942 61.358C161.103 61.358 157.258 61.3229 153.419 61.358C152.157 61.358 151.748 60.9715 151.701 59.6834C151.508 54.2672 151.467 54.2672 156.907 54.2672C162.856 54.2672 168.804 54.3082 174.758 54.2672C178.434 54.2672 180.239 52.1359 180.128 48.5348C180.052 46.304 178.071 44.3893 174.227 44.2195C170.721 44.0555 167.145 44.2195 163.61 44.1609C159.94 44.0731 156.399 43.511 153.799 40.4896C150.17 36.3031 150.41 31.5134 152.128 26.8526C153.676 22.666 157.433 20.9562 161.681 20.8567C168.606 20.6927 175.536 20.8567 182.466 20.7806C183.874 20.7806 184.219 21.2549 184.259 22.6074C184.359 27.8772 184.406 27.8772 179.164 27.8772C173.923 27.8772 168.769 27.8772 163.575 27.8772C160.139 27.8772 158.193 29.6338 158.187 32.5615C158.181 35.4892 160.197 37.2458 163.569 37.3336C167.776 37.4448 171.977 37.3336 176.196 37.6029C183.208 38.0948 186.877 42.0296 187.228 48.9974C187.666 57.6691 181.764 61.6039 174.875 61.358Z"/><path fill="#000" d="M145.192 49.2551C145.192 56.7733 140.558 61.3288 133.003 61.3346C129.608 61.3346 126.213 61.3346 122.824 61.3346C115.047 61.3346 110.448 57.1071 110.349 49.1438C110.238 40.3081 110.349 31.4666 110.296 22.6309C110.296 21.3076 110.618 20.7982 112.049 20.7689C117.705 20.6401 117.705 20.5874 117.705 26.1851C117.705 33.4418 117.705 40.6946 117.705 47.9435C117.705 51.8138 119.768 54.0974 123.549 54.2379C126.47 54.3433 129.427 54.3609 132.366 54.2379C136.176 54.0623 138.11 51.9485 138.116 48.1308C138.116 39.8163 138.174 31.5076 138.081 23.2047C138.081 21.3837 138.455 20.7103 140.418 20.7572C145.204 20.8743 145.204 20.7572 145.204 25.6874V36.3382C145.198 40.6419 145.209 44.9514 145.192 49.2551Z"/><path fill="#000" d="M26.1951 64.877C21.0063 64.7951 15.8 65.363 10.6405 64.5609C4.21294 63.5655 0.1227 58.7055 0.0408956 52.1827C-6.80075e-06 47.8849 0.0408956 43.5812 0.0408956 39.301C0.0408956 35.0207 0.0993276 30.6702 -6.80145e-06 26.349C-0.0409092 24.7446 0.502508 24.3172 2.0568 24.3113C7.13454 24.3113 7.13454 24.2411 7.13454 29.3879C7.13454 36.0239 7.13454 42.66 7.13454 49.296C7.13454 55.491 9.39586 57.7335 15.5604 57.7394C20.235 57.7394 24.9095 57.7862 29.5841 57.7394C30.9222 57.7394 31.4013 58.079 31.4364 59.496C31.5533 64.9005 31.5883 64.9942 26.1951 64.877Z"/><path fill="#A4A6AC" d="M210.793 59.8649C210.828 61.1472 210.139 61.3697 209.087 61.3521C206.674 61.3521 204.261 61.4283 201.859 61.3053C198.266 61.1355 196.548 57.7043 198.511 54.6478C199.019 53.8515 199.148 53.383 198.581 52.493C196.466 49.2023 198.318 45.818 202.198 45.7009C203.326 45.6657 204.454 45.7009 205.587 45.7009C206.867 45.7009 208.146 45.7009 209.426 45.7009C210.361 45.7009 210.77 46.1224 210.788 47.071C210.788 48.1191 210.238 48.3299 209.368 48.3182C207.486 48.3182 205.599 48.2831 203.717 48.3182C202.356 48.3533 200.86 48.3182 200.761 50.2856C200.644 52.4755 202.362 52.3525 203.729 52.4403C205.453 52.5574 207.194 52.4755 208.924 52.4403C209.847 52.4403 210.571 52.5867 210.536 53.7753C210.501 54.964 209.677 54.8176 208.935 54.8235C206.902 54.8235 204.845 54.8235 202.835 54.8235C201.625 54.8235 200.667 55.2216 200.609 56.5215C200.55 57.8214 201.45 58.5884 202.753 58.6294C204.857 58.688 206.966 58.6294 209.076 58.6294C209.917 58.6821 210.758 58.5826 210.793 59.8649Z"/><path fill="#A4A6AC" d="M229.638 47.557C228.124 51.4566 226.564 55.3504 225.051 59.2676C224.396 60.9598 223.228 61.7737 221.738 61.68C219.675 61.68 218.571 60.7198 217.998 59.2149C216.461 55.1631 215.024 51.0702 213.528 47.0007C213.329 46.4679 213.125 45.9351 213.908 45.7887C214.895 45.5955 215.93 45.5486 216.42 46.6845C217.127 48.3358 217.753 50.0221 218.39 51.6967C219.073 53.5177 219.71 55.3621 220.411 57.1714C220.616 57.7101 220.744 58.4655 221.434 58.5299C222.281 58.6119 222.486 57.8097 222.731 57.2007C224.04 53.9276 225.331 50.6427 226.634 47.3638C226.903 46.6787 227.032 45.8531 227.984 45.7594C228.568 45.7009 229.24 45.5252 229.737 45.9292C230.327 46.4328 229.819 47.0359 229.638 47.557Z"/></g><defs><clipPath id="clip0_8_100"><rect width="230" height="65" fill="#fff"/></clipPath></defs></svg>