<svg xmlns="http://www.w3.org/2000/svg" width="95" height="25" fill="none" viewBox="0 0 95 25"><g clip-path="url(#clip0_21_9)"><path fill="#A4A6AC" d="M25.0184 12.4975V22.0722C25.0184 23.4681 24.4322 24.4558 23.2851 24.8387C22.1381 25.2217 20.5867 25.0958 19.6923 24.0073C17.1657 20.9182 14.5583 17.8643 11.9912 14.7954L4.44683 5.77001C4.33061 5.62891 4.2447 5.3719 3.9971 5.47773C3.74949 5.58355 3.88593 5.79017 3.88593 5.95142C3.88593 10.3759 3.88593 14.7988 3.88593 19.2199C3.88593 19.361 3.80508 19.5475 3.97183 19.6432C4.13859 19.739 4.29018 19.5727 4.42157 19.4618C5.97795 18.1213 7.53938 16.7809 9.09071 15.4304C9.39391 15.1683 9.71226 14.9264 10.1014 15.2338C10.4904 15.5412 10.2833 15.899 10.0609 16.2417C8.37653 18.7445 6.67866 21.2491 4.96731 23.7553C4.65696 24.2589 4.18529 24.6433 3.62864 24.8463C3.07199 25.0493 2.46293 25.0591 1.90002 24.874C1.32236 24.7067 0.819225 24.3478 0.473765 23.8567C0.128304 23.3655 -0.038814 22.7716 2.27764e-05 22.173V2.89256C2.27764e-05 1.6025 0.601353 0.594641 1.68274 0.216693C2.76412 -0.161255 4.38114 -0.105823 5.24524 0.932274C6.73087 2.71619 8.22662 4.49003 9.71731 6.27394L20.5766 19.2451C20.6928 19.3812 20.7838 19.6382 21.0314 19.5324C21.279 19.4265 21.1527 19.2199 21.1527 19.0536C21.1527 14.6325 21.1527 10.2113 21.1527 5.79017C21.1527 5.64403 21.2234 5.46261 21.0617 5.36686C20.9 5.27112 20.7383 5.43238 20.6069 5.54324L15.9883 9.53437C15.8442 9.70401 15.655 9.82975 15.4426 9.8972C15.3359 9.92688 15.2227 9.9235 15.118 9.88749C15.0133 9.85149 14.9221 9.78457 14.8564 9.69563C14.7735 9.56287 14.7378 9.40611 14.7553 9.25066C14.7727 9.09522 14.8421 8.95017 14.9524 8.83895C16.0709 7.19613 17.1859 5.54996 18.2976 3.90043C18.8889 3.02359 19.4801 2.14171 20.0814 1.26991C20.3959 0.772167 20.8668 0.392175 21.4205 0.189151C21.9742 -0.013872 22.5797 -0.0285204 23.1426 0.147489C23.7056 0.323498 24.1943 0.680277 24.5327 1.16222C24.871 1.64417 25.04 2.22421 25.0133 2.81194C25.0201 6.04381 25.0217 9.27233 25.0184 12.4975Z"/><path fill="#A4A6AC" d="M45.1503 16.1963C45.1503 14.8609 45.1503 13.5255 45.1503 12.1951C45.1503 9.96439 45.1352 7.73198 45.1048 5.49788C45.1048 5.16025 45.2514 4.99395 45.5798 4.99395C46.0447 4.99395 46.5096 4.99395 46.9745 4.99395C47.4394 4.99395 47.5809 5.19049 47.5758 5.63395C47.5758 7.31203 47.5758 8.99012 47.5758 10.6733C47.5758 13.5255 47.5758 16.3777 47.5758 19.2401C47.5758 19.8649 47.3788 20.0917 46.7724 20.0111C46.5285 19.9934 46.2836 19.9934 46.0397 20.0111C45.6066 20.0366 45.1751 19.9394 44.7951 19.7308C44.4151 19.5221 44.102 19.2105 43.8921 18.8319C41.8068 15.5799 39.7063 12.3379 37.5907 9.10603C37.5099 8.98508 37.429 8.8591 37.2774 8.63737C37.2774 9.34791 37.2421 9.94759 37.2774 10.5473C37.4897 13.5053 37.429 16.4634 37.4492 19.4215C37.4492 19.8448 37.3128 20.0262 36.8732 20.0161C34.5487 19.9657 35.0035 20.3487 34.9883 18.2221C34.9883 14.0849 34.9883 9.95263 34.9883 5.8204C34.9883 5.15017 35.2107 4.94356 35.8322 5.01411C36.0745 5.02923 36.3176 5.02923 36.5599 5.01411C36.9665 4.99903 37.3695 5.09475 37.7256 5.29097C38.0818 5.4872 38.3775 5.7765 38.5812 6.1278C40.6429 9.316 42.713 12.5076 44.7915 15.7025C44.928 15.8486 45.0442 16.03 45.1503 16.1963Z"/><path fill="#A4A6AC" d="M90.7755 14.2915C92.1197 16.0048 93.4032 17.6325 94.6766 19.2703C94.813 19.4517 95.1061 19.613 94.9596 19.8801C94.813 20.1471 94.5553 19.996 94.3431 20.001C93.9186 20.001 93.4992 20.001 93.0798 20.001C92.7697 19.9762 92.469 19.8833 92.1991 19.7291C91.9291 19.575 91.6967 19.3632 91.5184 19.1091C90.4774 17.7333 89.4061 16.3828 88.3803 14.997C88.2584 14.8057 88.0857 14.6517 87.8815 14.5521C87.6773 14.4525 87.4495 14.4111 87.2231 14.4326C85.6718 14.4678 85.6718 14.4326 85.6718 15.9444C85.6718 17.0732 85.6718 18.202 85.6718 19.3257C85.6718 19.8599 85.4798 20.0111 84.9694 20.0111C83.1755 20.0111 83.1755 20.0111 83.1755 18.2373C83.1755 16.4634 83.1755 14.745 83.1755 12.9964C83.1755 12.432 83.3221 12.2153 83.9234 12.2254C85.7628 12.2606 87.6072 12.2606 89.4465 12.2254C91.2859 12.1901 92.3824 10.8396 91.9731 9.09091C91.7104 8.0125 90.7301 7.35739 89.3152 7.34227C87.9003 7.32715 86.6117 7.34227 85.2726 7.34227C84.7909 7.35594 84.3207 7.19494 83.949 6.88914C83.5773 6.58334 83.3294 6.15348 83.2513 5.6793C83.1604 5.23584 83.2513 4.98892 83.7567 4.99899C85.975 5.03931 88.1934 4.89821 90.4067 5.07458C91.3443 5.12489 92.2399 5.47882 92.9576 6.08269C93.6753 6.68656 94.176 7.5074 94.3835 8.42068C94.8888 10.4364 94.2572 12.4773 92.7412 13.5154C92.1447 13.9027 91.4763 14.1666 90.7755 14.2915Z"/><path fill="#A4A6AC" d="M72.9984 5.00404C74.8125 5.03427 74.4285 4.75711 75.0854 6.44528C76.7529 10.7186 78.4171 14.9886 80.0779 19.2552C80.3508 19.9557 80.3205 19.996 79.5726 20.001C77.7333 20.001 77.7383 20.001 77.0865 18.3028C75.8434 15.0272 74.5952 11.7533 73.342 8.48116C73.2561 8.25439 73.2865 7.85628 72.958 7.8714C72.6295 7.88652 72.675 8.27958 72.5891 8.51139C71.2113 12.1128 69.8435 15.7193 68.4859 19.3308C68.2939 19.8347 68.0311 20.0766 67.4753 20.0111C67.0547 19.9808 66.6325 19.9808 66.212 20.0111C65.7067 20.0111 65.6561 19.8549 65.833 19.4114C66.8436 16.8263 67.8543 14.236 68.8649 11.6458C69.5976 9.7561 70.3809 7.88148 71.0479 5.97662C71.3157 5.23584 71.6846 4.86293 72.4881 5.00907C72.658 5.02138 72.8287 5.01969 72.9984 5.00404Z"/><path fill="#A4A6AC" d="M57.0051 20.001C55.5851 20.001 54.1703 20.001 52.7503 20.001C52.3006 20.001 52.1237 19.875 52.1288 19.3963C52.149 16.8565 52.149 14.315 52.1288 11.7718C52.1288 11.3082 52.2753 11.157 52.7402 11.157C55.4352 11.1772 58.1185 11.1772 60.7899 11.157C61.2548 11.157 61.4216 11.3183 61.4165 11.7769C61.3711 13.8833 61.6894 13.5053 59.7439 13.5305C58.228 13.5305 56.712 13.5557 55.1961 13.5305C54.6604 13.5305 54.4987 13.7019 54.5189 14.2209C54.5543 15.1482 54.5492 16.0804 54.5189 17.0077C54.5189 17.5116 54.6907 17.6628 55.1758 17.6577C57.1971 17.6577 59.2184 17.6577 61.2397 17.6577C61.745 17.6577 61.9421 17.8089 61.932 18.338C61.8764 20.3538 62.2149 19.9809 60.2442 20.0111C59.178 20.0161 58.1117 20.001 57.0051 20.001Z"/><path fill="#A4A6AC" d="M57.0556 5.00403C58.4756 5.00403 59.8955 5.00403 61.3155 5.00403C61.7601 5.00403 61.9572 5.13505 61.9471 5.60875C61.8966 7.74541 62.2402 7.32715 60.2796 7.35235C58.3189 7.37755 56.237 7.35235 54.2157 7.35235C53.724 7.37271 53.2418 7.21348 52.8594 6.90454C52.4771 6.59559 52.2209 6.15816 52.1389 5.67426C52.0732 5.20057 52.1894 4.98891 52.72 4.99899C54.1753 5.03931 55.6155 5.00403 57.0556 5.00403Z"/></g><defs><clipPath id="clip0_21_9"><rect width="95" height="25" fill="#fff"/></clipPath></defs></svg>